<svg id="Layer_1" data-name="Layer 1" xmlns="http://www.w3.org/2000/svg" xmlns:xlink="http://www.w3.org/1999/xlink" viewBox="0 0 2117.45 2117.45"><defs><style>.cls-1{fill:none;clip-rule:evenodd;}.cls-2,.cls-260{fill:#fff;}.cls-3{clip-path:url(#clip-path);}.cls-4{fill:#0cf;}.cls-10,.cls-100,.cls-101,.cls-102,.cls-103,.cls-104,.cls-105,.cls-106,.cls-107,.cls-108,.cls-109,.cls-11,.cls-110,.cls-111,.cls-112,.cls-113,.cls-114,.cls-115,.cls-116,.cls-117,.cls-118,.cls-119,.cls-12,.cls-120,.cls-121,.cls-122,.cls-123,.cls-124,.cls-125,.cls-126,.cls-127,.cls-128,.cls-129,.cls-13,.cls-130,.cls-131,.cls-132,.cls-133,.cls-134,.cls-135,.cls-136,.cls-137,.cls-138,.cls-139,.cls-14,.cls-140,.cls-141,.cls-142,.cls-143,.cls-144,.cls-145,.cls-146,.cls-147,.cls-148,.cls-149,.cls-15,.cls-150,.cls-151,.cls-152,.cls-153,.cls-154,.cls-155,.cls-156,.cls-157,.cls-158,.cls-159,.cls-16,.cls-160,.cls-161,.cls-162,.cls-163,.cls-164,.cls-165,.cls-166,.cls-167,.cls-168,.cls-169,.cls-17,.cls-170,.cls-171,.cls-172,.cls-173,.cls-174,.cls-175,.cls-176,.cls-177,.cls-178,.cls-179,.cls-18,.cls-180,.cls-181,.cls-182,.cls-183,.cls-184,.cls-185,.cls-186,.cls-187,.cls-188,.cls-189,.cls-19,.cls-190,.cls-191,.cls-192,.cls-193,.cls-194,.cls-195,.cls-196,.cls-197,.cls-198,.cls-199,.cls-20,.cls-200,.cls-201,.cls-202,.cls-203,.cls-204,.cls-205,.cls-206,.cls-207,.cls-208,.cls-209,.cls-21,.cls-210,.cls-211,.cls-212,.cls-213,.cls-214,.cls-215,.cls-216,.cls-217,.cls-218,.cls-219,.cls-22,.cls-220,.cls-221,.cls-222,.cls-223,.cls-224,.cls-225,.cls-226,.cls-227,.cls-228,.cls-229,.cls-23,.cls-230,.cls-231,.cls-232,.cls-233,.cls-234,.cls-235,.cls-236,.cls-237,.cls-238,.cls-239,.cls-24,.cls-240,.cls-241,.cls-242,.cls-243,.cls-244,.cls-245,.cls-246,.cls-247,.cls-248,.cls-249,.cls-25,.cls-250,.cls-251,.cls-252,.cls-253,.cls-254,.cls-255,.cls-256,.cls-257,.cls-258,.cls-259,.cls-26,.cls-260,.cls-27,.cls-28,.cls-29,.cls-30,.cls-31,.cls-32,.cls-33,.cls-34,.cls-35,.cls-36,.cls-37,.cls-38,.cls-39,.cls-4,.cls-40,.cls-41,.cls-42,.cls-43,.cls-44,.cls-45,.cls-46,.cls-47,.cls-48,.cls-49,.cls-5,.cls-50,.cls-51,.cls-52,.cls-53,.cls-54,.cls-55,.cls-56,.cls-57,.cls-58,.cls-59,.cls-6,.cls-60,.cls-61,.cls-62,.cls-63,.cls-64,.cls-65,.cls-66,.cls-67,.cls-68,.cls-69,.cls-7,.cls-70,.cls-71,.cls-72,.cls-73,.cls-74,.cls-75,.cls-76,.cls-77,.cls-78,.cls-79,.cls-8,.cls-80,.cls-81,.cls-82,.cls-83,.cls-84,.cls-85,.cls-86,.cls-87,.cls-88,.cls-89,.cls-9,.cls-90,.cls-91,.cls-92,.cls-93,.cls-94,.cls-95,.cls-96,.cls-97,.cls-98,.cls-99{fill-rule:evenodd;}.cls-5{fill:#01cbff;}.cls-6{fill:#01caff;}.cls-7{fill:#02cafe;}.cls-8{fill:#02c9fe;}.cls-9{fill:#03c8fe;}.cls-10{fill:#04c7fe;}.cls-11{fill:#04c6fe;}.cls-12{fill:#05c6fd;}.cls-13{fill:#05c5fd;}.cls-14{fill:#06c4fd;}.cls-15{fill:#07c3fd;}.cls-16{fill:#07c2fd;}.cls-17{fill:#08c2fc;}.cls-18{fill:#08c1fc;}.cls-19{fill:#09c0fc;}.cls-20{fill:#0abffc;}.cls-21{fill:#0abefc;}.cls-22{fill:#0bbefb;}.cls-23{fill:#0bbdfb;}.cls-24{fill:#0cbcfb;}.cls-25{fill:#0dbbfb;}.cls-26{fill:#0dbafb;}.cls-27{fill:#0ebafa;}.cls-28{fill:#0eb9fa;}.cls-29{fill:#0fb8fa;}.cls-30{fill:#10b7fa;}.cls-31{fill:#10b6fa;}.cls-32{fill:#11b6f9;}.cls-33{fill:#11b5f9;}.cls-34{fill:#12b4f9;}.cls-35{fill:#13b3f9;}.cls-36{fill:#13b2f9;}.cls-37{fill:#14b2f8;}.cls-38{fill:#14b1f8;}.cls-39{fill:#15b0f8;}.cls-40{fill:#16aff8;}.cls-41{fill:#16aef8;}.cls-42{fill:#17aef7;}.cls-43{fill:#17adf7;}.cls-44{fill:#18acf7;}.cls-45{fill:#19abf7;}.cls-46{fill:#19aaf7;}.cls-47{fill:#1aaaf6;}.cls-48{fill:#1aa9f6;}.cls-49{fill:#1ba8f6;}.cls-50{fill:#1ca7f6;}.cls-51{fill:#1ca6f6;}.cls-52{fill:#1da6f5;}.cls-53{fill:#1da5f5;}.cls-54{fill:#1ea4f5;}.cls-55{fill:#1fa3f5;}.cls-56{fill:#1fa2f5;}.cls-57{fill:#20a2f4;}.cls-58{fill:#20a1f4;}.cls-59{fill:#21a0f4;}.cls-60{fill:#229ff4;}.cls-61{fill:#229ef4;}.cls-62{fill:#239ef3;}.cls-63{fill:#239df3;}.cls-64{fill:#249cf3;}.cls-65{fill:#259bf3;}.cls-66{fill:#259af3;}.cls-67{fill:#269af2;}.cls-68{fill:#2699f2;}.cls-69{fill:#2798f2;}.cls-70{fill:#2897f2;}.cls-71{fill:#2896f2;}.cls-72{fill:#2996f1;}.cls-73{fill:#2995f1;}.cls-74{fill:#2a94f1;}.cls-75{fill:#2b93f1;}.cls-76{fill:#2b92f1;}.cls-77{fill:#2c92f0;}.cls-78{fill:#2c91f0;}.cls-79{fill:#2d90f0;}.cls-80{fill:#2e8ff0;}.cls-81{fill:#2e8ef0;}.cls-82{fill:#2f8eef;}.cls-83{fill:#2f8def;}.cls-84{fill:#308cef;}.cls-85{fill:#318bef;}.cls-86{fill:#318aef;}.cls-87{fill:#328aee;}.cls-88{fill:#3289ee;}.cls-89{fill:#38e;}.cls-90{fill:#3487ee;}.cls-91{fill:#3486ee;}.cls-92{fill:#3586ed;}.cls-93{fill:#3585ed;}.cls-94{fill:#3684ed;}.cls-95{fill:#3783ed;}.cls-96{fill:#3782ed;}.cls-97{fill:#3882ec;}.cls-98{fill:#3881ec;}.cls-99{fill:#3980ec;}.cls-100{fill:#3a7fec;}.cls-101{fill:#3a7eec;}.cls-102{fill:#3b7eeb;}.cls-103{fill:#3b7deb;}.cls-104{fill:#3c7ceb;}.cls-105{fill:#3d7beb;}.cls-106{fill:#3d7aeb;}.cls-107{fill:#3e7aea;}.cls-108{fill:#3e79ea;}.cls-109{fill:#3f78ea;}.cls-110{fill:#4077ea;}.cls-111{fill:#4076ea;}.cls-112{fill:#4176e9;}.cls-113{fill:#4175e9;}.cls-114{fill:#4274e9;}.cls-115{fill:#4373e9;}.cls-116{fill:#4372e9;}.cls-117{fill:#4472e8;}.cls-118{fill:#4471e8;}.cls-119{fill:#4570e8;}.cls-120{fill:#466fe8;}.cls-121{fill:#466ee8;}.cls-122{fill:#476ee7;}.cls-123{fill:#476de7;}.cls-124{fill:#486ce7;}.cls-125{fill:#496be7;}.cls-126{fill:#496ae7;}.cls-127{fill:#4a6ae6;}.cls-128{fill:#4a69e6;}.cls-129{fill:#4b68e6;}.cls-130{fill:#4c67e6;}.cls-131{fill:#4c66e6;}.cls-132{fill:#4d66e5;}.cls-133{fill:#4d65e5;}.cls-134{fill:#4e64e5;}.cls-135{fill:#4f63e5;}.cls-136{fill:#4f62e5;}.cls-137{fill:#5062e4;}.cls-138{fill:#5061e4;}.cls-139{fill:#5160e4;}.cls-140{fill:#525fe4;}.cls-141{fill:#525ee4;}.cls-142{fill:#535ee3;}.cls-143{fill:#535de3;}.cls-144{fill:#545ce3;}.cls-145{fill:#555be3;}.cls-146{fill:#555ae3;}.cls-147{fill:#565ae2;}.cls-148{fill:#5659e2;}.cls-149{fill:#5758e2;}.cls-150{fill:#5857e2;}.cls-151{fill:#5856e2;}.cls-152{fill:#5956e1;}.cls-153{fill:#5955e1;}.cls-154{fill:#5a54e1;}.cls-155{fill:#5b53e1;}.cls-156{fill:#5b52e1;}.cls-157{fill:#5c52e0;}.cls-158{fill:#5c51e0;}.cls-159{fill:#5d50e0;}.cls-160{fill:#5e4fe0;}.cls-161{fill:#5e4ee0;}.cls-162{fill:#5f4edf;}.cls-163{fill:#5f4ddf;}.cls-164{fill:#604cdf;}.cls-165{fill:#614bdf;}.cls-166{fill:#614adf;}.cls-167{fill:#624ade;}.cls-168{fill:#6249de;}.cls-169{fill:#6348de;}.cls-170{fill:#6447de;}.cls-171{fill:#6446de;}.cls-172{fill:#6546dd;}.cls-173{fill:#6545dd;}.cls-174{fill:#64d;}.cls-175{fill:#6743dd;}.cls-176{fill:#6742dd;}.cls-177{fill:#6842dc;}.cls-178{fill:#6841dc;}.cls-179{fill:#6940dc;}.cls-180{fill:#6a3fdc;}.cls-181{fill:#6a3edc;}.cls-182{fill:#6b3edb;}.cls-183{fill:#6b3ddb;}.cls-184{fill:#6c3cdb;}.cls-185{fill:#6d3bdb;}.cls-186{fill:#6d3adb;}.cls-187{fill:#6e3ada;}.cls-188{fill:#6e39da;}.cls-189{fill:#6f38da;}.cls-190{fill:#7037da;}.cls-191{fill:#7036da;}.cls-192{fill:#7136d9;}.cls-193{fill:#7135d9;}.cls-194{fill:#7234d9;}.cls-195{fill:#7333d9;}.cls-196{fill:#7332d9;}.cls-197{fill:#7432d8;}.cls-198{fill:#7431d8;}.cls-199{fill:#7530d8;}.cls-200{fill:#762fd8;}.cls-201{fill:#762ed8;}.cls-202{fill:#772ed7;}.cls-203{fill:#772dd7;}.cls-204{fill:#782cd7;}.cls-205{fill:#792bd7;}.cls-206{fill:#792ad7;}.cls-207{fill:#7a2ad6;}.cls-208{fill:#7a29d6;}.cls-209{fill:#7b28d6;}.cls-210{fill:#7c27d6;}.cls-211{fill:#7c26d6;}.cls-212{fill:#7d26d5;}.cls-213{fill:#7d25d5;}.cls-214{fill:#7e24d5;}.cls-215{fill:#7f23d5;}.cls-216{fill:#7f22d5;}.cls-217{fill:#8022d4;}.cls-218{fill:#8021d4;}.cls-219{fill:#8120d4;}.cls-220{fill:#821fd4;}.cls-221{fill:#821ed4;}.cls-222{fill:#831ed3;}.cls-223{fill:#831dd3;}.cls-224{fill:#841cd3;}.cls-225{fill:#851bd3;}.cls-226{fill:#851ad3;}.cls-227{fill:#861ad2;}.cls-228{fill:#8619d2;}.cls-229{fill:#8718d2;}.cls-230{fill:#8817d2;}.cls-231{fill:#8816d2;}.cls-232{fill:#8916d1;}.cls-233{fill:#8915d1;}.cls-234{fill:#8a14d1;}.cls-235{fill:#8b13d1;}.cls-236{fill:#8b12d1;}.cls-237{fill:#8c12d0;}.cls-238{fill:#8c11d0;}.cls-239{fill:#8d10d0;}.cls-240{fill:#8e0fd0;}.cls-241{fill:#8e0ed0;}.cls-242{fill:#8f0ecf;}.cls-243{fill:#8f0dcf;}.cls-244{fill:#900ccf;}.cls-245{fill:#910bcf;}.cls-246{fill:#910acf;}.cls-247{fill:#920ace;}.cls-248{fill:#9209ce;}.cls-249{fill:#9308ce;}.cls-250{fill:#9407ce;}.cls-251{fill:#9406ce;}.cls-252{fill:#9506cd;}.cls-253{fill:#9505cd;}.cls-254{fill:#9604cd;}.cls-255{fill:#9703cd;}.cls-256{fill:#9702cd;}.cls-257{fill:#9802cc;}.cls-258{fill:#9801cc;}.cls-259{fill:#90c;}</style><clipPath id="clip-path"><path class="cls-1" d="M1326.8,1663.41c-67.67,19.09-137.08,29.5-207.35,29.5a746.78,746.78,0,0,1-181.32-22.56l-439,169.18,50.32-414.7c-110.18-132.73-170-298.44-170-471.95A737.94,737.94,0,0,1,804.53,284c104.1-49.45,55.52-33.84,169.17-56.39,47.72-9.55,96.3-13.88,145.75-13.88,407.76,0,739.17,330.54,739.17,739.16,0,353.1-218.63,618.57-531.82,710.53Z"/></clipPath></defs><circle class="cls-2" cx="1058.72" cy="1058.72" r="1003.9"/><g class="cls-3"><polygon class="cls-4" points="-146.32 1383.19 2.9 1171.51 1303.38 2091.12 1153.29 2302.81 -146.32 1383.19"/><polygon class="cls-5" points="1.16 1174.11 7.24 1166.3 1306.85 2085.92 1301.64 2093.72 1.16 1174.11"/><polygon class="cls-6" points="5.5 1168.9 10.71 1161.1 1310.32 2080.71 1305.11 2088.52 5.5 1168.9"/><polygon class="cls-7" points="8.97 1163.7 14.18 1155.89 1313.79 2075.51 1308.58 2083.31 8.97 1163.7"/><polygon class="cls-8" points="12.44 1158.49 17.65 1151.55 1317.26 2071.17 1312.05 2078.11 12.44 1158.49"/><polygon class="cls-9" points="15.91 1153.29 21.12 1146.35 1321.59 2065.96 1315.52 2072.9 15.91 1153.29"/><polygon class="cls-10" points="19.38 1148.95 25.45 1141.14 1325.06 2060.76 1319.86 2068.57 19.38 1148.95"/><polygon class="cls-11" points="22.85 1143.74 28.93 1135.94 1328.53 2055.55 1323.33 2063.36 22.85 1143.74"/><polygon class="cls-12" points="27.19 1138.54 32.4 1130.73 1332.01 2050.35 1326.8 2058.16 27.19 1138.54"/><polygon class="cls-13" points="30.66 1133.33 35.87 1125.53 1335.47 2045.14 1330.27 2052.95 30.66 1133.33"/><polygon class="cls-14" points="34.13 1128.13 39.34 1120.32 1339.81 2039.94 1333.74 2047.74 34.13 1128.13"/><polygon class="cls-15" points="37.6 1122.92 42.81 1115.11 1343.28 2034.73 1337.21 2042.54 37.6 1122.92"/><polygon class="cls-16" points="41.07 1117.72 47.14 1109.91 1346.75 2029.53 1341.55 2037.33 41.07 1117.72"/><polygon class="cls-17" points="45.41 1112.51 50.61 1104.7 1350.22 2024.32 1345.02 2032.13 45.41 1112.51"/><polygon class="cls-18" points="48.88 1107.31 54.09 1099.5 1353.69 2019.12 1348.49 2026.92 48.88 1107.31"/><polygon class="cls-19" points="52.35 1102.1 57.55 1095.16 1357.16 2014.78 1351.96 2021.72 52.35 1102.1"/><polygon class="cls-20" points="55.82 1096.89 61.03 1089.95 1361.5 2009.57 1355.43 2016.51 55.82 1096.89"/><polygon class="cls-21" points="59.29 1092.56 65.36 1084.75 1364.97 2004.37 1359.77 2012.17 59.29 1092.56"/><polygon class="cls-22" points="62.76 1087.35 68.83 1079.54 1368.44 1999.16 1363.24 2006.97 62.76 1087.35"/><polygon class="cls-23" points="67.1 1082.15 72.3 1074.34 1371.91 1993.95 1366.71 2001.76 67.1 1082.15"/><polygon class="cls-24" points="70.57 1076.94 75.77 1069.13 1375.38 1988.75 1370.18 1996.56 70.57 1076.94"/><polygon class="cls-25" points="74.04 1071.74 79.24 1063.93 1379.72 1983.55 1373.65 1991.35 74.04 1071.74"/><polygon class="cls-26" points="77.51 1066.53 82.71 1058.72 1383.19 1978.34 1377.12 1986.15 77.51 1066.53"/><polygon class="cls-27" points="80.98 1061.33 87.05 1053.52 1386.66 1973.13 1381.46 1980.94 80.98 1061.33"/><polygon class="cls-28" points="85.32 1056.12 90.52 1048.31 1390.13 1967.93 1384.93 1975.74 85.32 1056.12"/><polygon class="cls-29" points="88.79 1050.91 93.99 1043.11 1393.6 1962.72 1388.4 1970.53 88.79 1050.91"/><polygon class="cls-30" points="92.26 1045.71 97.46 1038.77 1397.07 1958.38 1391.87 1965.33 92.26 1045.71"/><polygon class="cls-31" points="95.73 1040.5 100.93 1033.56 1401.41 1953.18 1395.34 1960.12 95.73 1040.5"/><polygon class="cls-32" points="99.2 1036.17 105.27 1028.36 1404.88 1947.97 1399.67 1955.78 99.2 1036.17"/><polygon class="cls-33" points="102.67 1030.96 108.74 1023.15 1408.35 1942.77 1403.14 1950.58 102.67 1030.96"/><polygon class="cls-34" points="107.01 1025.76 112.21 1017.95 1411.82 1937.56 1406.62 1945.37 107.01 1025.76"/><polygon class="cls-35" points="110.48 1020.55 115.68 1012.74 1415.29 1932.36 1410.09 1940.17 110.48 1020.55"/><polygon class="cls-36" points="113.95 1015.35 119.15 1007.54 1419.63 1927.15 1413.56 1934.96 113.95 1015.35"/><polygon class="cls-37" points="117.42 1010.14 122.62 1002.33 1423.1 1921.95 1417.03 1929.76 117.42 1010.14"/><polygon class="cls-38" points="120.89 1004.93 126.96 997.13 1426.57 1916.74 1421.36 1924.55 120.89 1004.93"/><polygon class="cls-39" points="125.22 999.73 130.43 991.92 1430.04 1911.54 1424.83 1919.35 125.22 999.73"/><polygon class="cls-40" points="128.69 994.52 133.9 986.72 1433.51 1906.33 1428.3 1914.14 128.69 994.52"/><polygon class="cls-41" points="132.17 989.32 137.37 981.51 1436.98 1901.13 1431.77 1908.93 132.17 989.32"/><polygon class="cls-42" points="135.63 984.11 140.84 977.17 1441.32 1896.79 1435.24 1903.73 135.63 984.11"/><polygon class="cls-43" points="139.11 979.77 145.18 971.97 1444.79 1891.58 1439.58 1899.39 139.11 979.77"/><polygon class="cls-44" points="142.58 974.57 148.65 966.76 1448.26 1886.38 1443.05 1894.19 142.58 974.57"/><polygon class="cls-45" points="146.91 969.36 152.12 961.56 1451.73 1881.17 1446.52 1888.98 146.91 969.36"/><polygon class="cls-46" points="150.38 964.16 155.59 956.35 1455.2 1875.97 1449.99 1883.78 150.38 964.16"/><polygon class="cls-47" points="153.85 958.95 159.06 951.14 1459.54 1870.76 1453.46 1878.57 153.85 958.95"/><polygon class="cls-48" points="157.32 953.75 162.53 945.94 1463.01 1865.56 1456.93 1873.36 157.32 953.75"/><polygon class="cls-49" points="160.79 948.54 166.87 940.73 1466.48 1860.35 1461.27 1868.16 160.79 948.54"/><polygon class="cls-50" points="165.13 943.34 170.34 935.53 1469.95 1855.14 1464.74 1862.95 165.13 943.34"/><polygon class="cls-51" points="168.6 938.13 173.81 930.32 1473.42 1849.94 1468.21 1857.75 168.6 938.13"/><polygon class="cls-52" points="172.07 932.93 177.28 925.12 1476.89 1844.73 1471.68 1852.54 172.07 932.93"/><polygon class="cls-53" points="175.54 927.72 180.75 920.78 1481.23 1840.4 1475.15 1847.34 175.54 927.72"/><polygon class="cls-54" points="179.01 923.38 185.09 915.58 1484.7 1835.19 1479.49 1843 179.01 923.38"/><polygon class="cls-55" points="182.48 918.18 188.56 910.37 1488.17 1829.99 1482.96 1837.79 182.48 918.18"/><polygon class="cls-56" points="186.82 912.97 192.03 905.16 1491.64 1824.78 1486.43 1832.59 186.82 912.97"/><polygon class="cls-57" points="190.29 907.77 195.5 899.96 1495.11 1819.58 1489.9 1827.38 190.29 907.77"/><polygon class="cls-58" points="193.76 902.56 198.97 894.75 1499.44 1814.37 1493.37 1822.18 193.76 902.56"/><polygon class="cls-59" points="197.23 897.36 202.44 889.55 1502.91 1809.16 1496.84 1816.97 197.23 897.36"/><polygon class="cls-60" points="200.7 892.15 206.78 884.34 1506.38 1803.96 1501.18 1811.77 200.7 892.15"/><polygon class="cls-61" points="205.04 886.95 210.25 879.14 1509.86 1798.75 1504.65 1806.56 205.04 886.95"/><polygon class="cls-62" points="208.51 881.74 213.72 873.93 1513.33 1793.55 1508.12 1801.36 208.51 881.74"/><polygon class="cls-63" points="211.98 876.53 217.19 868.73 1516.8 1788.34 1511.59 1796.15 211.98 876.53"/><polygon class="cls-64" points="215.45 871.33 220.66 864.39 1521.13 1784.01 1515.06 1790.95 215.45 871.33"/><polygon class="cls-65" points="218.92 866.99 225 859.18 1524.6 1778.8 1519.4 1786.61 218.92 866.99"/><polygon class="cls-66" points="222.39 861.79 228.47 853.98 1528.07 1773.59 1522.87 1781.4 222.39 861.79"/><polygon class="cls-67" points="226.73 856.58 231.94 848.77 1531.54 1768.39 1526.34 1776.2 226.73 856.58"/><polygon class="cls-68" points="230.2 851.38 235.41 843.57 1535.01 1763.18 1529.81 1770.99 230.2 851.38"/><polygon class="cls-69" points="233.67 846.17 238.88 838.36 1539.35 1757.98 1533.28 1765.79 233.67 846.17"/><polygon class="cls-70" points="237.14 840.96 242.35 833.16 1542.82 1752.77 1536.75 1760.58 237.14 840.96"/><polygon class="cls-71" points="240.61 835.76 246.68 827.95 1546.29 1747.57 1541.09 1755.38 240.61 835.76"/><polygon class="cls-72" points="244.95 830.55 250.15 822.75 1549.76 1742.36 1544.56 1750.17 244.95 830.55"/><polygon class="cls-73" points="248.42 825.35 253.62 817.54 1553.23 1737.16 1548.03 1744.96 248.42 825.35"/><polygon class="cls-74" points="251.89 820.14 257.09 812.34 1556.7 1731.95 1551.5 1739.76 251.89 820.14"/><polygon class="cls-75" points="255.36 814.94 260.56 808 1561.04 1727.61 1554.97 1734.55 255.36 814.94"/><polygon class="cls-76" points="258.83 809.73 264.9 802.79 1564.51 1722.41 1559.31 1729.35 258.83 809.73"/><polygon class="cls-77" points="262.3 805.39 268.37 797.59 1567.98 1717.2 1562.78 1725.01 262.3 805.39"/><polygon class="cls-78" points="266.64 800.19 271.84 792.38 1571.45 1712 1566.25 1719.81 266.64 800.19"/><polygon class="cls-79" points="270.11 794.98 275.31 787.17 1574.92 1706.79 1569.72 1714.6 270.11 794.98"/><polygon class="cls-80" points="273.58 789.78 278.78 781.97 1579.26 1701.59 1573.19 1709.39 273.58 789.78"/><polygon class="cls-81" points="277.05 784.57 282.25 776.76 1582.73 1696.38 1576.66 1704.19 277.05 784.57"/><polygon class="cls-82" points="280.52 779.37 286.59 771.56 1586.2 1691.18 1581 1698.98 280.52 779.37"/><polygon class="cls-83" points="284.86 774.16 290.06 766.35 1589.67 1685.97 1584.47 1693.78 284.86 774.16"/><polygon class="cls-84" points="288.33 768.96 293.53 761.15 1593.14 1680.77 1587.94 1688.57 288.33 768.96"/><polygon class="cls-85" points="291.8 763.75 297 755.94 1596.61 1675.56 1591.41 1683.37 291.8 763.75"/><polygon class="cls-86" points="295.27 758.55 300.47 751.61 1600.95 1671.22 1594.88 1678.16 295.27 758.55"/><polygon class="cls-87" points="298.74 753.34 304.81 746.4 1604.42 1666.02 1599.21 1672.96 298.74 753.34"/><polygon class="cls-88" points="302.21 749 308.28 741.2 1607.89 1660.81 1602.68 1668.62 302.21 749"/><polygon class="cls-89" points="306.55 743.8 311.75 735.99 1611.36 1655.61 1606.15 1663.41 306.55 743.8"/><polygon class="cls-90" points="310.02 738.59 315.22 730.78 1614.83 1650.4 1609.63 1658.21 310.02 738.59"/><polygon class="cls-91" points="313.49 733.39 318.69 725.58 1619.17 1645.19 1613.1 1653 313.49 733.39"/><polygon class="cls-92" points="316.96 728.18 322.16 720.37 1622.64 1639.99 1616.57 1647.8 316.96 728.18"/><polygon class="cls-93" points="320.43 722.98 326.5 715.17 1626.11 1634.78 1620.9 1642.59 320.43 722.98"/><polygon class="cls-94" points="324.76 717.77 329.97 709.96 1629.58 1629.58 1624.37 1637.39 324.76 717.77"/><polygon class="cls-95" points="328.24 712.57 333.44 704.76 1633.05 1624.37 1627.84 1632.18 328.24 712.57"/><polygon class="cls-96" points="331.7 707.36 336.91 699.55 1636.52 1619.17 1631.31 1626.98 331.7 707.36"/><polygon class="cls-97" points="335.18 702.15 340.38 695.21 1640.86 1614.83 1634.78 1621.77 335.18 702.15"/><polygon class="cls-98" points="338.65 696.95 344.72 690.01 1644.33 1609.63 1639.12 1616.57 338.65 696.95"/><polygon class="cls-99" points="342.12 692.61 348.19 684.8 1647.8 1604.42 1642.59 1612.23 342.12 692.61"/><polygon class="cls-100" points="346.45 687.41 351.66 679.6 1651.27 1599.21 1646.06 1607.02 346.45 687.41"/><polygon class="cls-101" points="349.92 682.2 355.13 674.39 1654.74 1594.01 1649.53 1601.82 349.92 682.2"/><polygon class="cls-102" points="353.39 677 358.6 669.19 1659.08 1588.8 1653 1596.61 353.39 677"/><polygon class="cls-103" points="356.86 671.79 362.07 663.98 1662.55 1583.6 1656.47 1591.41 356.86 671.79"/><polygon class="cls-104" points="360.33 666.58 366.41 658.78 1666.02 1578.39 1660.81 1586.2 360.33 666.58"/><polygon class="cls-105" points="364.67 661.38 369.88 653.57 1669.49 1573.19 1664.28 1580.99 364.67 661.38"/><polygon class="cls-106" points="368.14 656.17 373.35 648.37 1672.96 1567.98 1667.75 1575.79 368.14 656.17"/><polygon class="cls-107" points="371.61 650.97 376.82 643.16 1676.43 1562.78 1671.22 1570.59 371.61 650.97"/><polygon class="cls-108" points="375.08 645.76 380.29 637.96 1680.77 1557.57 1674.69 1565.38 375.08 645.76"/><polygon class="cls-109" points="378.55 640.56 384.63 633.62 1684.24 1553.23 1679.03 1560.17 378.55 640.56"/><polygon class="cls-110" points="382.02 636.22 388.1 628.41 1687.71 1548.03 1682.5 1555.84 382.02 636.22"/><polygon class="cls-111" points="386.36 631.01 391.57 623.21 1691.17 1542.82 1685.97 1550.63 386.36 631.01"/><polygon class="cls-112" points="389.83 625.81 395.04 618 1694.65 1537.62 1689.44 1545.42 389.83 625.81"/><polygon class="cls-113" points="393.3 620.6 398.51 612.79 1698.98 1532.41 1692.91 1540.22 393.3 620.6"/><polygon class="cls-114" points="396.77 615.4 401.98 607.59 1702.45 1527.21 1696.38 1535.02 396.77 615.4"/><polygon class="cls-115" points="400.24 610.19 406.32 602.38 1705.92 1522 1700.72 1529.81 400.24 610.19"/><polygon class="cls-116" points="404.58 604.99 409.79 597.18 1709.39 1516.8 1704.19 1524.6 404.58 604.99"/><polygon class="cls-117" points="408.05 599.78 413.25 591.97 1712.87 1511.59 1707.66 1519.4 408.05 599.78"/><polygon class="cls-118" points="411.52 594.58 416.73 586.77 1716.34 1506.38 1711.13 1514.19 411.52 594.58"/><polygon class="cls-119" points="414.99 589.37 420.2 581.56 1720.67 1501.18 1714.6 1508.99 414.99 589.37"/><polygon class="cls-120" points="418.46 584.17 424.53 577.23 1724.14 1496.84 1718.94 1503.78 418.46 584.17"/><polygon class="cls-121" points="421.93 579.83 428 572.02 1727.61 1491.64 1722.41 1499.44 421.93 579.83"/><polygon class="cls-122" points="426.27 574.62 431.47 566.82 1731.08 1486.43 1725.88 1494.24 426.27 574.62"/><polygon class="cls-123" points="429.74 569.42 434.94 561.61 1734.55 1481.23 1729.35 1489.03 429.74 569.42"/><polygon class="cls-124" points="433.21 564.21 438.42 556.4 1738.89 1476.02 1732.82 1483.83 433.21 564.21"/><polygon class="cls-125" points="436.68 559.01 441.89 551.2 1742.36 1470.82 1736.29 1478.62 436.68 559.01"/><polygon class="cls-126" points="440.15 553.8 446.22 545.99 1745.83 1465.61 1740.63 1473.42 440.15 553.8"/><polygon class="cls-127" points="444.49 548.6 449.69 540.79 1749.3 1460.4 1744.1 1468.21 444.49 548.6"/><polygon class="cls-128" points="447.96 543.39 453.16 535.58 1752.77 1455.2 1747.57 1463.01 447.96 543.39"/><polygon class="cls-129" points="451.43 538.18 456.63 530.38 1756.24 1449.99 1751.04 1457.8 451.43 538.18"/><polygon class="cls-130" points="454.9 532.98 460.1 525.17 1760.58 1444.79 1754.51 1452.6 454.9 532.98"/><polygon class="cls-131" points="458.37 527.77 464.44 520.83 1764.05 1440.45 1758.85 1447.39 458.37 527.77"/><polygon class="cls-132" points="461.84 523.44 467.91 515.63 1767.52 1435.24 1762.32 1443.05 461.84 523.44"/><polygon class="cls-133" points="466.18 518.23 471.38 510.42 1770.99 1430.04 1765.79 1437.85 466.18 518.23"/><polygon class="cls-134" points="469.65 513.03 474.85 505.22 1774.46 1424.83 1769.26 1432.64 469.65 513.03"/><polygon class="cls-135" points="473.12 507.82 478.32 500.01 1778.8 1419.63 1772.73 1427.44 473.12 507.82"/><polygon class="cls-136" points="476.59 502.62 481.79 494.81 1782.27 1414.42 1776.2 1422.23 476.59 502.62"/><polygon class="cls-137" points="480.06 497.41 486.13 489.6 1785.74 1409.22 1780.54 1417.03 480.06 497.41"/><polygon class="cls-138" points="484.4 492.2 489.6 484.4 1789.21 1404.01 1784.01 1411.82 484.4 492.2"/><polygon class="cls-139" points="487.87 487 493.07 479.19 1792.68 1398.81 1787.48 1406.62 487.87 487"/><polygon class="cls-140" points="491.34 481.79 496.54 473.99 1796.15 1393.6 1790.95 1401.41 491.34 481.79"/><polygon class="cls-141" points="494.81 476.59 500.01 468.78 1800.49 1388.4 1794.41 1396.2 494.81 476.59"/><polygon class="cls-142" points="498.28 471.38 504.35 464.44 1803.96 1384.06 1798.75 1391 498.28 471.38"/><polygon class="cls-143" points="501.75 466.18 507.82 459.24 1807.43 1378.85 1802.22 1385.79 501.75 466.18"/><polygon class="cls-144" points="506.08 461.84 511.29 454.03 1810.9 1373.65 1805.69 1381.46 506.08 461.84"/><polygon class="cls-145" points="509.56 456.63 514.76 448.83 1814.37 1368.44 1809.16 1376.25 509.56 456.63"/><polygon class="cls-146" points="513.03 451.43 518.23 443.62 1818.71 1363.24 1812.63 1371.05 513.03 451.43"/><polygon class="cls-147" points="516.5 446.22 521.7 438.42 1822.18 1358.03 1816.11 1365.84 516.5 446.22"/><polygon class="cls-148" points="519.97 441.02 526.04 433.21 1825.65 1352.83 1820.44 1360.63 519.97 441.02"/><polygon class="cls-149" points="524.3 435.81 529.51 428 1829.12 1347.62 1823.91 1355.43 524.3 435.81"/><polygon class="cls-150" points="527.77 430.61 532.98 422.8 1832.59 1342.42 1827.38 1350.22 527.77 430.61"/><polygon class="cls-151" points="531.24 425.4 536.45 417.59 1836.06 1337.21 1830.85 1345.02 531.24 425.4"/><polygon class="cls-152" points="534.71 420.2 539.92 412.39 1840.4 1332.01 1834.32 1339.81 534.71 420.2"/><polygon class="cls-153" points="538.18 414.99 544.26 408.05 1843.87 1327.67 1838.66 1334.61 538.18 414.99"/><polygon class="cls-154" points="541.65 409.79 547.73 402.85 1847.34 1322.46 1842.13 1329.4 541.65 409.79"/><polygon class="cls-155" points="545.99 405.45 551.2 397.64 1850.81 1317.26 1845.6 1325.07 545.99 405.45"/><polygon class="cls-156" points="549.46 400.24 554.67 392.43 1854.28 1312.05 1849.07 1319.86 549.46 400.24"/><polygon class="cls-157" points="552.93 395.04 558.14 387.23 1858.62 1306.85 1852.54 1314.65 552.93 395.04"/><polygon class="cls-158" points="556.4 389.83 561.61 382.02 1862.09 1301.64 1856.01 1309.45 556.4 389.83"/><polygon class="cls-159" points="559.87 384.63 565.95 376.82 1865.56 1296.43 1860.35 1304.24 559.87 384.63"/><polygon class="cls-160" points="564.21 379.42 569.42 371.61 1869.03 1291.23 1863.82 1299.04 564.21 379.42"/><polygon class="cls-161" points="567.68 374.21 572.89 366.41 1872.5 1286.02 1867.29 1293.83 567.68 374.21"/><polygon class="cls-162" points="571.15 369.01 576.36 361.2 1875.97 1280.82 1870.76 1288.63 571.15 369.01"/><polygon class="cls-163" points="574.62 363.81 579.83 356 1880.3 1275.61 1874.23 1283.42 574.62 363.81"/><polygon class="cls-164" points="578.09 358.6 584.16 351.66 1883.78 1271.28 1878.57 1278.22 578.09 358.6"/><polygon class="cls-165" points="581.56 353.39 587.64 346.45 1887.24 1266.07 1882.04 1273.01 581.56 353.39"/><polygon class="cls-166" points="585.9 349.06 591.11 341.25 1890.72 1260.87 1885.51 1268.67 585.9 349.06"/><polygon class="cls-167" points="589.37 343.85 594.58 336.04 1894.19 1255.66 1888.98 1263.47 589.37 343.85"/><polygon class="cls-168" points="592.84 338.64 598.05 330.84 1898.52 1250.45 1892.45 1258.26 592.84 338.64"/><polygon class="cls-169" points="596.31 333.44 601.52 325.63 1901.99 1245.25 1895.92 1253.06 596.31 333.44"/><polygon class="cls-170" points="599.78 328.24 605.86 320.43 1905.46 1240.04 1900.26 1247.85 599.78 328.24"/><polygon class="cls-171" points="604.12 323.03 609.33 315.22 1908.93 1234.84 1903.73 1242.65 604.12 323.03"/><polygon class="cls-172" points="607.59 317.82 612.8 310.02 1912.4 1229.63 1907.2 1237.44 607.59 317.82"/><polygon class="cls-173" points="611.06 312.62 616.27 304.81 1915.87 1224.43 1910.67 1232.23 611.06 312.62"/><polygon class="cls-174" points="614.53 307.41 619.74 299.61 1920.21 1219.22 1914.14 1227.03 614.53 307.41"/><polygon class="cls-175" points="618 302.21 624.07 294.4 1923.68 1214.02 1918.48 1221.83 618 302.21"/><polygon class="cls-176" points="621.47 297 627.54 290.06 1927.15 1209.68 1921.95 1216.62 621.47 297"/><polygon class="cls-177" points="625.81 292.67 631.01 284.86 1930.62 1204.47 1925.42 1212.28 625.81 292.67"/><polygon class="cls-178" points="629.28 287.46 634.48 279.65 1934.09 1199.27 1928.89 1207.08 629.28 287.46"/><polygon class="cls-179" points="632.75 282.25 637.95 274.45 1938.43 1194.06 1932.36 1201.87 632.75 282.25"/><polygon class="cls-180" points="636.22 277.05 641.42 269.24 1941.9 1188.86 1935.83 1196.66 636.22 277.05"/><polygon class="cls-181" points="639.69 271.84 645.76 264.04 1945.37 1183.65 1940.17 1191.46 639.69 271.84"/><polygon class="cls-182" points="644.03 266.64 649.23 258.83 1948.84 1178.45 1943.64 1186.25 644.03 266.64"/><polygon class="cls-183" points="647.5 261.43 652.7 253.62 1952.31 1173.24 1947.11 1181.05 647.5 261.43"/><polygon class="cls-184" points="650.97 256.23 656.17 248.42 1955.78 1168.04 1950.58 1175.84 650.97 256.23"/><polygon class="cls-185" points="654.44 251.02 659.64 243.21 1960.12 1162.83 1954.05 1170.64 654.44 251.02"/><polygon class="cls-186" points="657.91 245.82 663.98 238.01 1963.59 1157.63 1958.38 1165.43 657.91 245.82"/><polygon class="cls-187" points="661.38 240.61 667.45 233.67 1967.06 1153.29 1961.86 1160.23 661.38 240.61"/><polygon class="cls-188" points="665.72 236.27 670.92 228.46 1970.53 1148.08 1965.33 1155.89 665.72 236.27"/><polygon class="cls-189" points="669.19 231.07 674.39 223.26 1974 1142.88 1968.8 1150.68 669.19 231.07"/><polygon class="cls-190" points="672.66 225.86 677.86 218.05 1978.34 1137.67 1972.27 1145.48 672.66 225.86"/><polygon class="cls-191" points="676.13 220.66 681.33 212.85 1981.81 1132.46 1975.74 1140.27 676.13 220.66"/><polygon class="cls-192" points="679.6 215.45 685.67 207.64 1985.28 1127.26 1980.07 1135.07 679.6 215.45"/><polygon class="cls-193" points="683.94 210.25 689.14 202.44 1988.75 1122.06 1983.54 1129.86 683.94 210.25"/><polygon class="cls-194" points="687.4 205.04 692.61 197.23 1992.22 1116.85 1987.02 1124.66 687.4 205.04"/><polygon class="cls-195" points="690.88 199.84 696.08 192.03 1995.69 1111.64 1990.48 1119.45 690.88 199.84"/><polygon class="cls-196" points="694.35 194.63 699.55 186.82 2000.03 1106.44 1993.95 1114.25 694.35 194.63"/><polygon class="cls-197" points="697.82 189.43 703.89 181.62 2003.5 1101.23 1998.29 1109.04 697.82 189.43"/><polygon class="cls-198" points="701.29 184.22 707.36 177.28 2006.97 1096.89 2001.76 1103.84 701.29 184.22"/><polygon class="cls-199" points="705.62 179.88 710.83 172.07 2010.44 1091.69 2005.23 1099.5 705.62 179.88"/><polygon class="cls-200" points="709.1 174.68 714.3 166.87 2013.91 1086.48 2008.7 1094.29 709.1 174.68"/><polygon class="cls-201" points="712.57 169.47 717.77 161.66 2018.25 1081.28 2012.17 1089.09 712.57 169.47"/><polygon class="cls-202" points="716.03 164.26 721.24 156.46 2021.72 1076.07 2015.64 1083.88 716.03 164.26"/><polygon class="cls-203" points="719.51 159.06 725.58 151.25 2025.19 1070.87 2019.98 1078.68 719.51 159.06"/><polygon class="cls-204" points="723.84 153.85 729.05 146.05 2028.66 1065.66 2023.45 1073.47 723.84 153.85"/><polygon class="cls-205" points="727.31 148.65 732.52 140.84 2032.13 1060.46 2026.92 1068.27 727.31 148.65"/><polygon class="cls-206" points="730.78 143.44 735.99 135.64 2035.6 1055.25 2030.39 1063.06 730.78 143.44"/><polygon class="cls-207" points="734.25 138.24 739.46 130.43 2039.94 1050.05 2033.86 1057.86 734.25 138.24"/><polygon class="cls-208" points="737.72 133.03 743.8 125.22 2043.41 1044.84 2038.2 1052.65 737.72 133.03"/><polygon class="cls-209" points="741.19 127.83 747.27 120.89 2046.88 1040.5 2041.67 1047.44 741.19 127.83"/><polygon class="cls-210" points="745.53 122.62 750.74 115.68 2050.35 1035.3 2045.14 1042.24 745.53 122.62"/><polygon class="cls-211" points="749 118.28 754.21 110.48 2053.82 1030.09 2048.61 1037.9 749 118.28"/><polygon class="cls-212" points="752.47 113.08 757.68 105.27 2058.16 1024.89 2052.08 1032.7 752.47 113.08"/><polygon class="cls-213" points="755.94 107.87 761.15 100.07 2061.63 1019.68 2055.55 1027.49 755.94 107.87"/><polygon class="cls-214" points="759.41 102.67 765.49 94.86 2065.1 1014.48 2059.89 1022.28 759.41 102.67"/><polygon class="cls-215" points="763.75 97.46 768.96 89.65 2068.57 1009.27 2063.36 1017.08 763.75 97.46"/><polygon class="cls-216" points="767.22 92.26 772.43 84.45 2072.04 1004.07 2066.83 1011.87 767.22 92.26"/><polygon class="cls-217" points="770.69 87.05 775.9 79.24 2075.51 998.86 2070.3 1006.67 770.69 87.05"/><polygon class="cls-218" points="774.16 81.85 779.37 74.04 2079.84 993.65 2073.77 1001.46 774.16 81.85"/><polygon class="cls-219" points="777.63 76.64 783.71 68.83 2083.32 988.45 2077.24 996.26 777.63 76.64"/><polygon class="cls-220" points="781.1 71.44 787.18 64.5 2086.78 984.11 2081.58 991.05 781.1 71.44"/><polygon class="cls-221" points="785.44 66.23 790.64 59.29 2090.26 978.91 2085.05 985.85 785.44 66.23"/><polygon class="cls-222" points="788.91 61.89 794.12 54.09 2093.72 973.7 2088.52 981.51 788.91 61.89"/><polygon class="cls-223" points="792.38 56.69 797.59 48.88 2097.2 968.5 2091.99 976.3 792.38 56.69"/><polygon class="cls-224" points="795.85 51.48 801.06 43.67 2101.53 963.29 2095.46 971.1 795.85 51.48"/><polygon class="cls-225" points="799.32 46.28 805.39 38.47 2105 958.09 2099.8 965.89 799.32 46.28"/><polygon class="cls-226" points="803.66 41.07 808.86 33.26 2108.47 952.88 2103.27 960.69 803.66 41.07"/><polygon class="cls-227" points="807.13 35.87 812.34 28.06 2111.94 947.67 2106.74 955.48 807.13 35.87"/><polygon class="cls-228" points="810.6 30.66 815.8 22.85 2115.41 942.47 2110.21 950.28 810.6 30.66"/><polygon class="cls-229" points="814.07 25.45 819.27 17.65 2119.75 937.26 2113.68 945.07 814.07 25.45"/><polygon class="cls-230" points="817.54 20.25 823.61 12.44 2123.22 932.06 2117.15 939.87 817.54 20.25"/><polygon class="cls-231" points="821.01 15.04 827.08 8.1 2126.69 927.72 2121.49 934.66 821.01 15.04"/><polygon class="cls-232" points="825.35 9.84 830.55 2.9 2130.16 922.51 2124.96 929.46 825.35 9.84"/><polygon class="cls-233" points="828.82 5.5 834.02 -2.31 2133.63 917.31 2128.43 925.12 828.82 5.5"/><polygon class="cls-234" points="832.29 0.3 837.49 -7.51 2137.1 912.11 2131.9 919.91 832.29 0.3"/><polygon class="cls-235" points="835.76 -4.91 840.96 -12.72 2141.44 906.9 2135.37 914.71 835.76 -4.91"/><polygon class="cls-236" points="839.23 -10.12 845.3 -17.92 2144.91 901.69 2139.7 909.5 839.23 -10.12"/><polygon class="cls-237" points="843.57 -15.32 848.77 -23.13 2148.38 896.49 2143.18 904.3 843.57 -15.32"/><polygon class="cls-238" points="847.04 -20.52 852.24 -28.33 2151.85 891.28 2146.65 899.09 847.04 -20.52"/><polygon class="cls-239" points="850.51 -25.73 855.71 -33.54 2155.32 886.08 2150.12 893.89 850.51 -25.73"/><polygon class="cls-240" points="853.98 -30.94 859.18 -38.74 2159.66 880.87 2153.59 888.68 853.98 -30.94"/><polygon class="cls-241" points="857.45 -36.14 863.52 -43.95 2163.13 875.67 2157.06 883.48 857.45 -36.14"/><polygon class="cls-242" points="860.92 -41.35 866.99 -49.16 2166.6 870.46 2161.39 878.27 860.92 -41.35"/><polygon class="cls-243" points="865.26 -46.55 870.46 -53.49 2170.07 866.12 2164.86 873.06 865.26 -46.55"/><polygon class="cls-244" points="868.73 -50.89 873.93 -58.7 2173.54 860.92 2168.34 868.73 868.73 -50.89"/><polygon class="cls-245" points="872.2 -56.1 877.4 -63.9 2177.01 855.71 2171.81 863.52 872.2 -56.1"/><polygon class="cls-246" points="875.67 -61.3 880.87 -69.11 2181.35 850.51 2175.28 858.32 875.67 -61.3"/><polygon class="cls-247" points="879.14 -66.51 885.21 -74.31 2184.82 845.3 2179.61 853.11 879.14 -66.51"/><polygon class="cls-248" points="883.48 -71.71 888.68 -79.52 2188.29 840.1 2183.08 847.9 883.48 -71.71"/><polygon class="cls-249" points="886.95 -76.92 892.15 -84.72 2191.76 834.89 2186.55 842.7 886.95 -76.92"/><polygon class="cls-250" points="890.42 -82.12 895.62 -89.93 2195.23 829.69 2190.02 837.49 890.42 -82.12"/><polygon class="cls-251" points="893.89 -87.33 899.09 -95.14 2199.57 824.48 2193.49 832.29 893.89 -87.33"/><polygon class="cls-252" points="897.36 -92.53 903.43 -100.34 2203.04 819.27 2196.97 827.08 897.36 -92.53"/><polygon class="cls-253" points="900.83 -97.74 906.9 -105.55 2206.51 814.07 2201.3 821.88 900.83 -97.74"/><polygon class="cls-254" points="905.16 -102.94 910.37 -109.89 2209.98 809.73 2204.77 816.67 905.16 -102.94"/><polygon class="cls-255" points="908.63 -107.28 913.84 -115.09 2213.45 804.53 2208.24 812.34 908.63 -107.28"/><polygon class="cls-256" points="912.1 -112.49 917.31 -120.3 2216.92 799.32 2211.71 807.13 912.1 -112.49"/><polygon class="cls-257" points="915.58 -117.69 920.78 -125.5 2221.26 794.12 2215.18 801.92 915.58 -117.69"/><polygon class="cls-258" points="919.04 -122.9 925.12 -130.71 2224.73 788.91 2219.52 796.72 919.04 -122.9"/><polygon class="cls-259" points="923.38 -128.1 963.29 -185.36 2263.77 734.25 2222.99 791.51 923.38 -128.1"/></g><path class="cls-2" d="M993.66,293.53c21.68-4.34,43.37-6.94,65.93-9.54,21.69-1.74,44.25-3.47,66.8-3.47,185.66,0,354,75.48,476.29,197.8,121.46,121.46,196.94,289.77,196.94,476.3a671.86,671.86,0,0,1-324.47,576.06l-7.81-13a652.72,652.72,0,0,0,233.38-240.31c53.79-95.43,84.15-205.61,84.15-322.73a656.94,656.94,0,0,0-192.6-465.89C1472.55,369,1308.58,295.27,1126.39,295.27c-22.55,0-44.24.86-65.07,3.47a558.9,558.9,0,0,0-65.06,9.54ZM1315.52,1601a663.44,663.44,0,0,1-93.7,20,695.69,695.69,0,0,1-95.43,6.94,628.55,628.55,0,0,1-99.77-7.8c-33-4.34-64.2-12.15-95.43-20.83l-334,129.27,38.17-314.06a658.87,658.87,0,0,1-182.19-459.8c0-132.74,38.18-256.8,104.11-360.91,68.54-107.58,165.71-194.34,282-249l6.94,13A662.18,662.18,0,0,0,513.89,1198.4c31.24,78.08,77.22,148.35,134.48,209.08l1.73,2.61-35.57,295.83,314.06-121.45h4.34a692.17,692.17,0,0,0,95.43,21.68,734,734,0,0,0,98,6.95c32.1,0,62.47-2.61,93.7-6.95a627.86,627.86,0,0,0,91.09-19.08Z"/><path class="cls-260" d="M835.76,327.37c13,0,24.29,10.41,24.29,23.42s-11.28,23.43-24.29,23.43a23.43,23.43,0,0,1,0-46.85Z"/><path class="cls-2" d="M835.76,319.56a31.54,31.54,0,0,1,22.56,9.54,31.47,31.47,0,0,1,0,43.38A31.54,31.54,0,0,1,835.76,382a28.19,28.19,0,0,1-21.69-9.54,31.44,31.44,0,0,1,0-43.38,28.19,28.19,0,0,1,21.69-9.54Zm12.15,19.09c-3.48-2.61-6.95-4.34-12.15-4.34a14,14,0,0,0-11.28,5.2c-2.6,2.61-5.21,6.94-5.21,11.28s2.61,8.68,5.21,11.28a14,14,0,0,0,11.28,5.21c5.2,0,8.67-1.74,12.15-5.21a16.49,16.49,0,0,0,4.33-11.28,20.72,20.72,0,0,0-4.33-12.14Z"/><path class="cls-260" d="M993.66,277.05a23.32,23.32,0,0,1,23.42,23.42c0,13.88-10.41,24.29-23.42,24.29a24.25,24.25,0,0,1-24.3-24.29c0-13,11.28-23.42,24.3-23.42Z"/><path class="cls-2" d="M993.66,269.24a32.7,32.7,0,0,1,31.23,31.23,31.48,31.48,0,0,1-9.55,22.56,30.81,30.81,0,0,1-21.68,8.67A34.7,34.7,0,0,1,971.1,323a34.66,34.66,0,0,1-8.68-22.56,30.82,30.82,0,0,1,8.68-21.69,31.51,31.51,0,0,1,22.56-9.54Zm11.27,19.95a14,14,0,0,0-11.27-5.2,17.13,17.13,0,0,0-12.15,5.2,16.52,16.52,0,0,0-4.34,11.28c0,5.21,1.74,8.68,4.34,12.15A20.76,20.76,0,0,0,993.66,317a16.5,16.5,0,0,0,11.27-4.34c3.47-3.47,5.21-6.94,5.21-12.15a14,14,0,0,0-5.21-11.28Z"/><path class="cls-2" d="M577.22,760.28a479.21,479.21,0,0,1,21.69-54.66q11.72-26,26-52C706.49,513,836.63,418.46,982.38,379.42s305.38-21.69,445.92,59A585.39,585.39,0,0,1,1721.54,985l-14.75-.87a573.06,573.06,0,0,0-66.8-308,560.61,560.61,0,0,0-218.63-224.7c-137.07-79.82-293.23-95.43-435.51-57.26C844.43,431.47,716.9,524.3,638,661.38a552.81,552.81,0,0,0-26,50.32c-7.81,17.35-14.75,35.57-20.82,52.92Zm305.39,769.53L709.1,1578.39l34.7-190.86A572.78,572.78,0,0,1,589.37,1168.9,584.35,584.35,0,0,1,548.6,899.09l14.74.87a564.6,564.6,0,0,0,39.91,262.87c33,81.55,84.16,156.16,153.56,216.89l2.6,2.6-31.23,176.12,150.09-43.38Zm812-401.68c-6.08,19.95-13.89,39-22.56,58.12-7.81,19.09-17.35,37.31-27.76,55.53a591.76,591.76,0,0,1-262,240.31c-109.31,50.32-233.37,66.81-354,44.25l2.6-13.88a570.92,570.92,0,0,0,344.42-44.25c104.11-47.71,194.34-126.66,255.93-233.37,10.42-18.22,20-35.57,27.77-54.66,7.8-18.22,15.61-37.3,21.68-56.39Z"/><path class="cls-2" d="M1285.16,466.18A441,441,0,0,1,1332,485.26c15.61,6.94,30.36,14.75,45.11,22.56h0C1499.44,579,1581.86,691.74,1615.7,818.41a511.54,511.54,0,0,1-361.78,625.51c-125.79,33.84-264.6,19.09-386.93-51.19a508.62,508.62,0,0,1-238.58-310.58c-33-125.8-19.09-264.61,51.19-386.94A509.2,509.2,0,0,1,885.21,498.28c85-45.12,183.06-65.07,279.35-57.26l-.86,14.75a496.81,496.81,0,0,0-271.55,55.52,494.51,494.51,0,0,0-249,567.39c33,122.32,111.92,232.5,230.77,301a494.29,494.29,0,0,0,376.52,49.45c122.33-33,232.51-111.91,301-230.77h0A494.29,494.29,0,0,0,1601,821.88c-33-122.33-111.92-232.51-230.77-301a425,425,0,0,0-44.25-22.55c-14.75-6.94-30.36-13-45.11-18.22Z"/><path class="cls-2" d="M1417,1275.61a354.68,354.68,0,0,1-33.84,26.9q-16.92,11.71-36.44,23.42A433,433,0,0,1,769,1190.59l12.14-7.81A418.24,418.24,0,0,0,1034.43,1358c100.64,23.43,209.08,10.41,305.38-45.11,12.15-6.94,23.43-14.75,34.71-22.56,12.14-8.67,22.55-16.48,33-26Zm-693.19-170c-38.17-98.9-37.3-205.61-3.47-301.91,33-93.7,98.9-177,192.6-230.77A433,433,0,0,1,1228.77,526c105,24.29,200.4,87.62,262.87,183.05l-12.15,7.81a416.09,416.09,0,0,0-253.33-176.11c-100.63-24.29-210-10.41-306.25,45.11-90.22,52.05-153.56,131.87-185.66,223-33,92-33,195.21,3.47,291.51ZM1542,811.47a432.7,432.7,0,0,1-55.52,386.06l-11.28-8.67a412,412,0,0,0,70.28-180.46,406.51,406.51,0,0,0-17.36-192.59Z"/><path class="cls-260" d="M1286.89,450.56c13,0,24.29,10.41,24.29,23.43a24.25,24.25,0,0,1-24.29,24.29c-13,0-23.42-10.41-23.42-24.29a23.33,23.33,0,0,1,23.42-23.43Z"/><path class="cls-2" d="M1286.89,442.75A32.7,32.7,0,0,1,1318.12,474a31.5,31.5,0,0,1-9.54,22.55,31.44,31.44,0,0,1-43.38,0,31.5,31.5,0,0,1-9.54-22.55,32.7,32.7,0,0,1,31.23-31.24Zm12.15,20c-3.47-2.61-7.81-5.21-12.15-5.21s-8.67,2.6-11.28,5.21a14,14,0,0,0-5.2,11.28c0,5.2,1.73,8.67,5.2,12.14a16.52,16.52,0,0,0,11.28,4.34,20.76,20.76,0,0,0,12.15-4.34c2.6-3.47,4.33-6.94,4.33-12.14a16.49,16.49,0,0,0-4.33-11.28Z"/><path class="cls-260" d="M1161.09,424.53c13,0,23.43,11.28,23.43,24.3a23.33,23.33,0,0,1-23.43,23.42c-13.88,0-24.29-10.41-24.29-23.42a24.25,24.25,0,0,1,24.29-24.3Z"/><path class="cls-2" d="M1161.09,417.59a30.78,30.78,0,0,1,21.69,8.68,31.48,31.48,0,0,1,9.55,22.56,32.7,32.7,0,0,1-31.24,31.23,31.5,31.5,0,0,1-22.55-9.54,30.82,30.82,0,0,1-8.68-21.69,29.77,29.77,0,0,1,31.23-31.24Zm11.28,19.09a16.5,16.5,0,0,0-11.28-4.34c-5.2,0-8.67,1.74-12.14,4.34a20.76,20.76,0,0,0-4.34,12.15A16.5,16.5,0,0,0,1149,460.1c3.47,3.47,6.94,5.21,12.14,5.21a18,18,0,0,0,16.49-16.48,17.14,17.14,0,0,0-5.21-12.15Z"/><path class="cls-260" d="M580.7,742.93c13,0,24.29,10.41,24.29,23.42s-11.28,24.3-24.29,24.3-23.43-11.28-23.43-24.3a23.33,23.33,0,0,1,23.43-23.42Z"/><path class="cls-2" d="M580.7,735.12a31.5,31.5,0,0,1,22.55,9.54,30.82,30.82,0,0,1,8.68,21.69,29.77,29.77,0,0,1-31.23,31.24A30.78,30.78,0,0,1,559,788.91a31.48,31.48,0,0,1-9.55-22.56,32.7,32.7,0,0,1,31.24-31.23Zm12.14,20a17.13,17.13,0,0,0-12.14-5.21,18,18,0,0,0-16.49,16.48,17.14,17.14,0,0,0,5.21,12.15,16.5,16.5,0,0,0,11.28,4.34,15.07,15.07,0,0,0,16.48-16.49,16.5,16.5,0,0,0-4.34-11.27Z"/><path class="cls-260" d="M552.93,878.27a23.33,23.33,0,0,1,23.43,23.42c0,13-10.41,24.3-23.43,24.3a24.25,24.25,0,0,1-24.29-24.3c0-13,10.41-23.42,24.29-23.42Z"/><path class="cls-2" d="M552.93,870.46a32.7,32.7,0,0,1,31.24,31.23,31.48,31.48,0,0,1-9.55,22.56,30.78,30.78,0,0,1-21.69,8.68,29.77,29.77,0,0,1-31.23-31.24A30.82,30.82,0,0,1,530.38,880a31.5,31.5,0,0,1,22.55-9.54Zm11.28,20a14,14,0,0,0-11.28-5.21c-5.2,0-8.67,1.74-12.14,5.21a16.45,16.45,0,0,0-4.34,11.27,18.77,18.77,0,0,0,4.34,12.15c3.47,2.6,6.94,4.34,12.14,4.34a16.5,16.5,0,0,0,11.28-4.34c3.47-3.47,5.21-6.94,5.21-12.15a14,14,0,0,0-5.21-11.27Z"/><path class="cls-260" d="M1485.56,1168a23.33,23.33,0,0,1,23.43,23.42c0,13-10.41,24.29-23.43,24.29s-24.29-11.28-24.29-24.29,11.28-23.42,24.29-23.42Z"/><path class="cls-2" d="M1485.56,1160.23a32.7,32.7,0,0,1,31.24,31.23,31.49,31.49,0,0,1-9.55,22.56,31.47,31.47,0,0,1-43.38,0,31.52,31.52,0,0,1-9.54-22.56,32.68,32.68,0,0,1,31.23-31.23Zm11.28,20a14,14,0,0,0-11.28-5.2,17.12,17.12,0,0,0-12.14,5.2,16.5,16.5,0,0,0-4.34,11.28c0,5.21,1.74,8.68,4.34,12.15a20.74,20.74,0,0,0,12.14,4.33,16.49,16.49,0,0,0,11.28-4.33c3.47-3.47,5.21-6.94,5.21-12.15a14,14,0,0,0-5.21-11.28Z"/><path class="cls-260" d="M1413.56,1250.45a23.33,23.33,0,0,1,23.42,23.43c0,13.88-10.41,24.29-23.42,24.29a24.25,24.25,0,0,1-24.3-24.29c0-13,11.28-23.43,24.3-23.43Z"/><path class="cls-2" d="M1413.56,1242.65a32.68,32.68,0,0,1,31.23,31.23,31.5,31.5,0,0,1-9.54,22.55,30.82,30.82,0,0,1-21.69,8.68,29.77,29.77,0,0,1-31.24-31.23,30.78,30.78,0,0,1,8.68-21.69,31.51,31.51,0,0,1,22.56-9.54Zm11.27,19.95a14,14,0,0,0-11.27-5.21c-5.21,0-8.68,1.74-12.15,5.21a16.5,16.5,0,0,0-4.34,11.28c0,5.2,1.74,8.67,4.34,12.14a18.77,18.77,0,0,0,12.15,4.34,16.45,16.45,0,0,0,11.27-4.34c3.47-3.47,5.21-6.94,5.21-12.14a14,14,0,0,0-5.21-11.28Z"/><path class="cls-260" d="M1485.56,695.21c13,0,23.43,11.28,23.43,24.3a23.33,23.33,0,0,1-23.43,23.42c-13,0-24.29-10.41-24.29-23.42s11.28-24.3,24.29-24.3Z"/><path class="cls-2" d="M1485.56,688.27a30.78,30.78,0,0,1,21.69,8.68,31.48,31.48,0,0,1,9.55,22.56,32.72,32.72,0,0,1-31.24,31.23,31.47,31.47,0,0,1-22.55-9.55,30.77,30.77,0,0,1-8.68-21.68,29.77,29.77,0,0,1,31.23-31.24Zm11.28,19.09a16.5,16.5,0,0,0-11.28-4.34,20.75,20.75,0,0,0-12.14,4.34c-2.6,3.47-4.34,6.94-4.34,12.15a16.5,16.5,0,0,0,4.34,11.27,17.13,17.13,0,0,0,12.14,5.21,18,18,0,0,0,16.49-16.48c0-5.21-1.74-8.68-5.21-12.15Z"/><path class="cls-260" d="M1532.41,784.57c13,0,24.29,10.41,24.29,23.43a24.24,24.24,0,0,1-24.29,24.29c-13,0-23.42-10.41-23.42-24.29a23.33,23.33,0,0,1,23.42-23.43Z"/><path class="cls-2" d="M1532.41,776.76a31.48,31.48,0,0,1,22.56,9.55c5.2,5.2,8.67,13.88,8.67,21.69a29.75,29.75,0,0,1-31.23,31.23,30.82,30.82,0,0,1-21.69-8.68,31.5,31.5,0,0,1-9.54-22.55c0-7.81,3.47-16.49,9.54-21.69a28.2,28.2,0,0,1,21.69-9.55Zm12.15,20c-3.47-2.6-6.94-5.21-12.15-5.21-4.34,0-8.67,2.61-11.28,5.21a14,14,0,0,0-5.2,11.28c0,5.2,1.73,8.67,5.2,12.14a16.47,16.47,0,0,0,11.28,4.34,18.77,18.77,0,0,0,12.15-4.34c2.6-3.47,4.34-6.94,4.34-12.14a16.5,16.5,0,0,0-4.34-11.28Z"/><path class="cls-260" d="M1717.2,966.76c13,0,24.29,11.28,24.29,24.29s-11.27,23.43-24.29,23.43a23.33,23.33,0,0,1-23.42-23.43c0-13,10.41-24.29,23.42-24.29Z"/><path class="cls-2" d="M1717.2,959.82a29.75,29.75,0,0,1,31.23,31.23,30.77,30.77,0,0,1-8.67,21.69,31.51,31.51,0,0,1-22.56,9.54A32.68,32.68,0,0,1,1686,991.05a31.5,31.5,0,0,1,9.54-22.55,30.82,30.82,0,0,1,21.69-8.68Zm12.15,19.09a20.69,20.69,0,0,0-12.15-4.34,16.49,16.49,0,0,0-11.28,4.34,17.11,17.11,0,0,0-5.2,12.14,18,18,0,0,0,16.48,16.49,17.14,17.14,0,0,0,12.15-5.21,16.5,16.5,0,0,0,4.34-11.28,20.73,20.73,0,0,0-4.34-12.14Z"/><path class="cls-260" d="M1695.51,1097.76a24.26,24.26,0,0,1,24.3,24.29c0,13-10.42,23.43-24.3,23.43a23.33,23.33,0,0,1-23.42-23.43c0-13,10.41-24.29,23.42-24.29Z"/><path class="cls-2" d="M1695.51,1090.82a29.77,29.77,0,0,1,31.24,31.23,30.78,30.78,0,0,1-8.68,21.69,31.48,31.48,0,0,1-22.56,9.55,32.7,32.7,0,0,1-31.23-31.24,31.5,31.5,0,0,1,9.54-22.55,30.82,30.82,0,0,1,21.69-8.68Zm12.15,19.09c-3.47-2.6-6.94-4.34-12.15-4.34a16.5,16.5,0,0,0-11.27,4.34,17.09,17.09,0,0,0-5.21,12.14,18,18,0,0,0,16.48,16.49c5.21,0,8.68-1.74,12.15-5.21a16.5,16.5,0,0,0,4.34-11.28,20.75,20.75,0,0,0-4.34-12.14Z"/><path class="cls-260" d="M729.05,1070.87c13.88,0,24.29,10.41,24.29,23.42a24.24,24.24,0,0,1-24.29,24.29c-13,0-23.43-11.27-23.43-24.29a23.33,23.33,0,0,1,23.43-23.42Z"/><path class="cls-2" d="M729.05,1063.06a31.54,31.54,0,0,1,22.56,9.54,30.85,30.85,0,0,1,8.67,21.69,29.74,29.74,0,0,1-31.23,31.23c-7.81,0-15.62-3.47-21.69-8.67-5.21-6.07-9.54-13.88-9.54-22.56s4.33-16.48,9.54-21.69c6.07-6.07,13.88-9.54,21.69-9.54Zm12.14,20c-3.47-3.47-6.94-5.2-12.14-5.2a14,14,0,0,0-11.28,5.2c-2.6,2.61-5.21,6.94-5.21,11.28s2.61,8.68,5.21,12.15a16.5,16.5,0,0,0,11.28,4.34c5.2,0,8.67-1.74,12.14-4.34,2.61-3.47,5.21-7.81,5.21-12.15s-2.6-8.67-5.21-11.28Z"/><path class="cls-260" d="M777.63,1170.64a23.33,23.33,0,0,1,23.43,23.42c0,13-10.41,24.29-23.43,24.29s-24.29-11.27-24.29-24.29,11.28-23.42,24.29-23.42Z"/><path class="cls-2" d="M777.63,1162.83a32.68,32.68,0,0,1,31.23,31.23,31.51,31.51,0,0,1-9.54,22.56,30.82,30.82,0,0,1-21.69,8.67,29.75,29.75,0,0,1-31.23-31.23,30.82,30.82,0,0,1,8.68-21.69,31.5,31.5,0,0,1,22.55-9.54Zm11.28,20a14,14,0,0,0-11.28-5.2,17.11,17.11,0,0,0-12.14,5.2,16.47,16.47,0,0,0-4.34,11.28,18.77,18.77,0,0,0,4.34,12.15,20.73,20.73,0,0,0,12.14,4.34,16.5,16.5,0,0,0,11.28-4.34c3.47-3.47,5.21-6.94,5.21-12.15a14,14,0,0,0-5.21-11.28Z"/><path class="cls-260" d="M890.42,1493.37c13,0,24.29,10.41,24.29,23.43a24.25,24.25,0,0,1-24.29,24.29c-13,0-23.43-10.41-23.43-24.29a23.33,23.33,0,0,1,23.43-23.43Z"/><path class="cls-2" d="M890.42,1485.56a31.47,31.47,0,0,1,22.55,9.55,30.78,30.78,0,0,1,8.68,21.69A29.77,29.77,0,0,1,890.42,1548a30.78,30.78,0,0,1-21.69-8.68,31.47,31.47,0,0,1-9.55-22.55,32.71,32.71,0,0,1,31.24-31.24Zm12.14,20c-3.47-2.61-7.81-5.21-12.14-5.21s-8.68,2.6-11.28,5.21a14,14,0,0,0-5.21,11.28c0,5.2,1.74,8.67,5.21,12.14a16.5,16.5,0,0,0,11.28,4.34,20.75,20.75,0,0,0,12.14-4.34c2.6-3.47,4.34-6.94,4.34-12.14a16.5,16.5,0,0,0-4.34-11.28Z"/><path class="cls-260" d="M1024.89,1481.23c13,0,23.42,11.27,23.42,24.29a23.32,23.32,0,0,1-23.42,23.42c-13,0-24.29-10.41-24.29-23.42s11.27-24.29,24.29-24.29Z"/><path class="cls-2" d="M1024.89,1474.29a30.85,30.85,0,0,1,21.69,8.67,31.51,31.51,0,0,1,9.54,22.56,32.68,32.68,0,0,1-31.23,31.23,31.51,31.51,0,0,1-22.56-9.54,30.85,30.85,0,0,1-8.67-21.69,29.74,29.74,0,0,1,31.23-31.23Zm11.28,19.08a16.52,16.52,0,0,0-11.28-4.34,15.07,15.07,0,0,0-16.49,16.49,16.52,16.52,0,0,0,4.34,11.28,17.13,17.13,0,0,0,12.15,5.2,17.94,17.94,0,0,0,16.48-16.48,17.13,17.13,0,0,0-5.2-12.15Z"/><path class="cls-260" d="M1315.52,1572.32c13,0,23.43,10.41,23.43,24.29a23.33,23.33,0,0,1-23.43,23.43c-13.88,0-24.29-10.41-24.29-23.43,0-13.88,10.41-24.29,24.29-24.29Z"/><path class="cls-2" d="M1315.52,1565.38c7.81,0,15.62,3.47,21.69,8.67a34.7,34.7,0,0,1,8.68,22.56,30.78,30.78,0,0,1-8.68,21.69c-6.07,6.07-13.88,9.54-21.69,9.54a31.54,31.54,0,0,1-22.56-9.54,30.82,30.82,0,0,1-8.67-21.69,29.74,29.74,0,0,1,31.23-31.23Zm11.28,19.09a16.46,16.46,0,0,0-11.28-4.34c-5.2,0-9.54,1.73-12.15,4.34-2.6,3.47-5.2,6.94-5.2,12.14,0,4.34,2.6,8.68,5.2,11.28,2.61,3.47,7,5.21,12.15,5.21a14,14,0,0,0,11.28-5.21c2.6-2.6,5.21-6.94,5.21-11.28,0-5.2-2.61-8.67-5.21-12.14Z"/><path class="cls-260" d="M1468.21,1501.18a23.33,23.33,0,0,1,23.43,23.42c0,13-10.41,24.3-23.43,24.3s-24.29-11.28-24.29-24.3,11.28-23.42,24.29-23.42Z"/><path class="cls-2" d="M1468.21,1493.37a32.68,32.68,0,0,1,31.23,31.23,31.51,31.51,0,0,1-9.54,22.56,30.78,30.78,0,0,1-21.69,8.68A29.77,29.77,0,0,1,1437,1524.6a30.82,30.82,0,0,1,8.68-21.69,31.5,31.5,0,0,1,22.55-9.54Zm11.28,20a14,14,0,0,0-11.28-5.21c-5.2,0-8.67,1.74-12.14,5.21a16.45,16.45,0,0,0-4.34,11.27,20.69,20.69,0,0,0,4.34,12.15c3.47,2.6,6.94,4.34,12.14,4.34a16.5,16.5,0,0,0,11.28-4.34,17.14,17.14,0,0,0,5.21-12.15,14,14,0,0,0-5.21-11.27Z"/><path class="cls-260" d="M939.87,867.86a85,85,0,1,1-85,85,85.16,85.16,0,0,1,85-85Z"/><path class="cls-260" d="M1304.24,867.86a85,85,0,0,1,0,170c-46.85,0-84.15-38.17-84.15-85s37.3-85,84.15-85Z"/></svg>